<?xml version="1.0" encoding="UTF-8"?>
<svg width="512px" height="512px" viewBox="0 0 512 512" version="1.1" xmlns="http://www.w3.org/2000/svg" xmlns:xlink="http://www.w3.org/1999/xlink">
    <!-- Generator: Sketch 55.2 (78181) - https://sketchapp.com -->
    <title>gappein-logo</title>
    <desc>Created with Sketch.</desc>
    <g id="Page-1" stroke="none" stroke-width="1" fill="none" fill-rule="evenodd">
        <g id="gappein-logo">
            <g id="logo-1">
                <g id="Rectangle-2" fill="#3A006D">
                    <rect id="Rectangle" x="0" y="0" width="512" height="512" rx="40"></rect>
                </g>
                <circle id="Oval" fill="#FFFFFF" cx="256.5" cy="256.5" r="184.5"></circle>
                <g id="chat-box" transform="translate(256.000000, 263.000000) rotate(-360.000000) translate(-256.000000, -263.000000) translate(135.000000, 140.000000)" fill="#3A006D" fill-rule="nonzero">
                    <path d="M121.561012,0 C121.494983,0 121.362923,0 121.164833,0 C54.3425928,0 0,54.2444847 0,120.946087 C0,148.167195 9.31021334,174.597375 26.3459229,195.886523 L8.7159444,236.817052 C7.263287,240.178496 8.84800417,244.067226 12.1494983,245.45135 C13.3380361,245.978635 14.6586338,246.110457 15.9132015,245.912725 L80.5564559,234.576089 C93.4983127,239.255747 107.100468,241.628531 120.834684,241.56262 C187.656924,241.56262 241.999759,187.318135 241.999759,120.616533 C242.131577,54.1126633 188.185163,0.065910674 121.561012,0 Z M80.0942467,96.625048 L115.750383,96.625048 C119.382026,96.625048 122.353371,99.5910284 122.353371,103.216115 C122.353371,106.841203 119.382026,109.807183 115.750383,109.807183 L80.0942467,109.807183 C76.4626032,109.807183 73.4912585,106.841203 73.4912585,103.216115 C73.4912585,99.5910284 76.4626032,96.625048 80.0942467,96.625048 Z M161.9713,142.76252 L80.0942467,142.76252 C76.4626032,142.76252 73.4912585,139.796539 73.4912585,136.171452 C73.4912585,132.546365 76.4626032,129.580385 80.0942467,129.580385 L161.9713,129.580385 C165.602944,129.580385 168.574288,132.546365 168.574288,136.171452 C168.574288,139.796539 165.602944,142.76252 161.9713,142.76252 Z" id="Shape"></path>
                </g>
                <polygon id="Path-2" fill="#3A006D" points="319.980346 157.777516 390.070257 72 441 122.929743 360.172354 219.49292"></polygon>
                <rect id="Rectangle" fill="#3A006D" x="320" y="173" width="161" height="110"></rect>
                <rect id="Rectangle" fill="#3A006D" x="371" y="146" width="61" height="49"></rect>
                <rect id="Rectangle" fill="#FFFFFF" x="333" y="236" width="106" height="55" rx="7.5"></rect>
            </g>
        </g>
    </g>
</svg>